#!OML:ASF X:\für Bonn\!DataBase\2005_08_11_Bastian_Final\c3d\Bastian.ASF
:FULLY-SPECIFIED
:DEGREES
32
root -2.0506 17.2966 5.90727 153.919 -25.3045 -174.398
lowerback 28.7879 -6.53193 -0.0859779
upperback 11.522 -11.1844 0.666142
thorax -2.4887 -6.73878 4.1237
lowerneck -9.19595 -6.45539 -4.01371
upperneck -4.88201 -8.78126 9.74804
head 0.701156 -4.5266 3.51842
rclavicle -7.43703e-014 6.21202e-014
rhumerus -45.8941 33.4324 -101.417
rradius 39.3038
rwrist -36.4792
rhand -36.6196 1.37586
rfingers 7.12502
rthumb -9.70764 -28.3804
lclavicle -7.43703e-014 6.21202e-014
lhumerus 35.484 -27.6672 79.3147
lradius 93.4148
lwrist -17.4042
lhand -57.0816 -10.0915
lfingers 7.12502
lthumb -29.3694 17.6081
rfemur -47.6146 -17.7595 16.7812
rtibia 112.681
rfoot -0.135317 -4.70626
rtoes -9.49113
lfemur 16.3323 -0.327141 -16.8883
ltibia 23.7557
lfoot -6.46576 -12.0277
ltoes -0.0399717
33
root -2.05685 17.2911 5.93093 153.278 -25.2736 -174.131
lowerback 29.7829 -6.61203 -0.107537
upperback 11.6566 -11.4005 0.74048
thorax -2.74493 -6.89458 4.41835
lowerneck -9.29808 -7.13968 -4.10105
upperneck -4.76134 -8.56257 9.9042
head 0.765894 -3.87338 3.59907
rclavicle -3.80176e-014 1.32192e-014
rhumerus -46.1451 33.699 -101.463
rradius 39.7167
rwrist -36.4513
rhand -36.6291 1.73323
rfingers 7.12502
rthumb -9.71677 -28.0226
lclavicle -3.80176e-014 1.32192e-014
lhumerus 36.6348 -27.3954 79.5061
lradius 93.807
lwrist -17.6226
lhand -57.2678 -10.2966
lfingers 7.12502
lthumb -29.5471 17.3717
rfemur -49.8699 -17.9406 17.3581
rtibia 114.531
rfoot -0.1609 -4.40763
rtoes -9.96442
lfemur 16.8242 -0.601552 -16.802
ltibia 23.7669
lfoot -6.47658 -11.8035
ltoes -0.0695432
34
root -2.06161 17.287 5.9536 152.645 -25.2533 -173.845
lowerback 30.7559 -6.6882 -0.134104
upperback 11.7796 -11.6116 0.838103
thorax -2.9904 -7.0484 4.74143
lowerneck -9.36301 -7.08967 -4.33952
upperneck -4.76498 -8.47283 9.99777
head 0.78751 -3.82292 3.67913
rclavicle 6.04554e-014 8.54774e-015
rhumerus -46.3331 33.914 -101.447
rradius 40.0437
rwrist -36.3682
rhand -36.6116 2.17306
rfingers 7.12502
rthumb -9.69997 -27.5836
lclavicle 6.04554e-014 8.54774e-015
lhumerus 37.7627 -27.1481 79.7239
lradius 94.226
lwrist -17.821
lhand -57.4099 -10.5012
lfingers 7.12502
lthumb -29.6828 17.143
rfemur -52.1274 -18.0306 17.9917
rtibia 116.222
rfoot -0.196842 -4.0843
rtoes -9.88871
lfemur 17.2907 -0.872943 -16.6958
ltibia 23.7868
lfoot -6.5058 -11.6137
ltoes -0.338624
35
root -2.06538 17.2812 5.97366 151.991 -25.2181 -173.577
lowerback 31.7378 -6.74099 -0.19117
upperback 11.906 -11.8072 0.937852
thorax -3.2231 -7.19795 5.0836
lowerneck -9.41102 -7.05302 -4.62198
upperneck -4.77251 -8.39698 10.1336
head 0.810502 -3.77875 3.78244
rclavicle 6.9028e-014 -5.62561e-014
rhumerus -46.4858 34.0833 -101.396
rradius 40.3418
rwrist -36.1484
rhand -36.5806 2.60863
rfingers 7.12502
rthumb -9.67006 -27.1494
lclavicle 6.9028e-014 -5.62561e-014
lhumerus 38.8673 -26.9525 79.8545
lradius 94.7181
lwrist -17.971
lhand -57.5286 -10.5994
lfingers 7.12502
lthumb -29.7961 17.0246
rfemur -54.3204 -18.0034 18.6527
rtibia 117.764
rfoot -0.289012 -3.74719
rtoes -9.64485
lfemur 17.7591 -1.16992 -16.6209
ltibia 23.8885
lfoot -6.60704 -11.3686
ltoes -0.697381
36
root -2.06885 17.269 5.99161 151.338 -25.1816 -173.286
lowerback 33.0385 -6.80418 -0.185486
upperback 11.7026 -12.0159 1.23962
thorax -3.48308 -7.35972 5.2559
lowerneck -9.47544 -7.02678 -4.91554
upperneck -4.79938 -8.32874 10.3055
head 0.833073 -3.73607 3.90055
rclavicle 1.31844e-013 -8.48811e-014
rhumerus -46.5205 34.248 -101.3
rradius 40.5609
rwrist -35.8886
rhand -36.5169 3.02325
rfingers 7.12502
rthumb -9.60853 -26.7376
lclavicle 1.31844e-013 -8.48811e-014
lhumerus 39.9769 -26.8015 79.8722
lradius 95.2718
lwrist -18.1045
lhand -57.6697 -10.4809
lfingers 7.12502
lthumb -29.9307 17.1189
rfemur -56.5033 -17.9065 19.3568
rtibia 119.187
rfoot -0.423945 -3.37591
rtoes -9.25375
lfemur 18.1516 -1.51392 -16.54
ltibia 24.1347
lfoot -6.77475 -11.1273
ltoes -0.895045
37
root -2.07068 17.25 6.00688 150.702 -25.1299 -173.017
lowerback 34.0003 -6.83564 -0.238349
upperback 11.7877 -12.1869 1.37081
thorax -3.68799 -7.49953 5.58173
lowerneck -9.52359 -7.00159 -5.19496
upperneck -4.81587 -8.26728 10.4187
head 0.852339 -3.69946 3.99599
rclavicle -4.07509e-015 1.19271e-015
rhumerus -46.5622 34.4566 -101.195
rradius 40.7439
rwrist -35.5702
rhand -36.4328 3.40751
rfingers 7.12502
rthumb -9.52741 -26.3571
lclavicle -4.07509e-015 1.19271e-015
lhumerus 41.0143 -26.7168 79.8217
lradius 95.8407
lwrist -18.2037
lhand -57.8342 -10.3492
lfingers 7.12502
lthumb -30.0877 17.2222
rfemur -58.6317 -17.7329 20.09
rtibia 120.611
rfoot -0.749419 -3.09866
rtoes -8.89128
lfemur 18.1212 -1.79488 -16.4475
ltibia 25.2755
lfoot -7.43928 -10.9883
ltoes -1.42361
38
root -2.07375 17.2247 6.02015 150.045 -25.0643 -172.729
lowerback 34.9385 -6.87228 -0.266279
upperback 11.8903 -12.3665 1.49888
thorax -3.85907 -7.64787 5.89003
lowerneck -9.56398 -6.9731 -5.48385
upperneck -4.86228 -8.19573 10.5574
head 0.861343 -3.6569 4.10411
rclavicle -5.397e-014 1.43125e-014
rhumerus -46.5718 34.7541 -101.089
rradius 40.9488
rwrist -35.3063
rhand -36.359 3.71839
rfingers 7.12502
rthumb -9.4562 -26.0495
lclavicle -5.397e-014 1.43125e-014
lhumerus 42.032 -26.6246 79.7092
lradius 96.3581
lwrist -18.3451
lhand -58.0348 -10.0544
lfingers 7.12502
lthumb -30.279 17.482
rfemur -60.7007 -17.5399 20.8736
rtibia 122.004
rfoot -1.16239 -2.93124
rtoes -8.45674
lfemur 18.0764 -2.06075 -16.3273
ltibia 26.5108
lfoot -8.14353 -10.8848
ltoes -1.70677
39
root -2.07604 17.0927 6.01693 149.405 -24.9987 -172.445
lowerback 35.8341 -6.90248 -0.277151
upperback 12.0049 -12.5365 1.6111
thorax -3.99964 -7.79277 6.16422
lowerneck -9.64551 -6.95598 -5.74116
upperneck -4.88113 -8.14206 10.6939
head 0.886178 -3.62171 4.20344
rclavicle -7.7526e-015 1.63997e-014
rhumerus -46.5317 35.0555 -101.003
rradius 41.1273
rwrist -34.9961
rhand -36.3024 3.95265
rfingers 7.12502
rthumb -9.40163 -25.8177
lclavicle -7.7526e-015 1.63997e-014
lhumerus 43.0087 -26.5751 79.5701
lradius 96.808
lwrist -18.4832
lhand -58.2594 -9.9266
lfingers 7.12502
lthumb -30.4933 17.5702
rfemur -63.7549 -17.0922 21.7298
rtibia 123.937
rfoot -1.22313 -2.83825
rtoes -8.14999
lfemur 17.9027 -2.41592 -16.2572
ltibia 27.9806
lfoot -8.99664 -10.7066
ltoes -2.08951
40
root -2.08078 17.0633 6.02586 148.756 -24.9305 -172.17
lowerback 36.8335 -6.94272 -0.259144
upperback 11.9902 -12.7012 1.73239
thorax -4.17449 -7.92983 6.43114
lowerneck -9.66698 -6.93601 -6.02635
upperneck -4.89746 -8.0873 10.8395
head 0.902984 -3.58859 4.31377
rclavicle 3.23025e-016 8.94531e-016
rhumerus -46.5409 35.3581 -100.91
rradius 41.2947
rwrist -34.6444
rhand -36.2295 4.13858
rfingers 7.12502
rthumb -9.33121 -25.6349
lclavicle 3.23025e-016 8.94531e-016
lhumerus 43.8697 -26.5556 79.4845
lradius 97.1957
lwrist -18.6144
lhand -58.5286 -9.89101
lfingers 7.12502
lthumb -30.75 17.5578
rfemur -65.7992 -16.6607 22.5206
rtibia 125.153
rfoot -1.56998 -2.80266
rtoes -7.92554
lfemur 17.8709 -2.83476 -16.2574
ltibia 29.2493
lfoot -9.78454 -10.4193
ltoes -2.49428
41
root -2.08615 17.0336 6.03365 148.113 -24.8279 -171.87
lowerback 37.6859 -6.96915 -0.224003
upperback 12.1029 -12.8544 1.85192
thorax -4.29461 -8.06864 6.6813
lowerneck -9.7521 -6.92173 -6.28699
upperneck -4.90487 -8.03806 10.966
head 0.931937 -3.5558 4.4109
rclavicle -3.926e-015 -2.69353e-014
rhumerus -46.4702 35.7542 -100.803
rradius 41.4846
rwrist -34.3288
rhand -36.1532 4.16947
rfingers 7.12502
rthumb -9.25763 -25.6073
lclavicle -3.926e-015 -2.69353e-014
lhumerus 44.7552 -26.5199 79.3669
lradius 97.5758
lwrist -18.7634
lhand -58.7636 -9.85369
lfingers 7.12502
lthumb -30.9741 17.5527
rfemur -67.8279 -16.0986 23.3534
rtibia 126.277
rfoot -1.79544 -2.90192
rtoes -7.36793
lfemur 17.8682 -3.26131 -16.2422
ltibia 30.4422
lfoot -10.5446 -10.0705
ltoes -2.95671
42
root -2.09342 17.0064 6.0409 147.477 -24.7404 -171.585
lowerback 38.5235 -7.00458 -0.176132
upperback 12.1994 -13.0101 1.96908
thorax -4.42192 -8.20628 6.92453
lowerneck -9.8901 -6.91227 -6.51465
upperneck -4.86427 -7.98107 11.4032
head 0.915031 -3.50978 4.15645
rclavicle -1.1045e-013 5.85421e-014
rhumerus -46.3857 36.1289 -100.669
rradius 41.6338
rwrist -33.9567
rhand -36.0508 4.17053
rfingers 7.12502
rthumb -9.15881 -25.6106
lclavicle -1.1045e-013 5.85421e-014
lhumerus 45.5611 -26.507 79.3
lradius 97.9266
lwrist -18.9004
lhand -59.0128 -9.89448
lfingers 7.12502
lthumb -31.2116 17.4665
rfemur -69.8759 -15.4524 24.1284
rtibia 127.273
rfoot -1.80588 -3.06953
rtoes -6.47809
lfemur 18.1715 -3.634 -16.2214
ltibia 30.9728
lfoot -10.9255 -9.75652
ltoes -3.26323
